<mxfile host="app.diagrams.net" modified="2022-09-01T12:04:43.709Z" agent="5.0 (Macintosh; Intel Mac OS X 10_15_7) AppleWebKit/537.36 (KHTML, like Gecko) Chrome/103.0.0.0 Safari/537.36" etag="wBzm5WAv2plho4mIaw3-" version="20.2.2" type="github">
  <diagram id="6eFuIv4uiRzRvES8ZejX" name="Page-1">
    <mxGraphModel dx="1234" dy="1894" grid="1" gridSize="10" guides="1" tooltips="1" connect="1" arrows="1" fold="1" page="1" pageScale="1" pageWidth="850" pageHeight="1100" math="0" shadow="0">
      <root>
        <mxCell id="0" />
        <mxCell id="1" parent="0" />
        <mxCell id="OQe1Y0kKmWqE2SKBV_gD-3" value="" style="edgeStyle=orthogonalEdgeStyle;rounded=0;orthogonalLoop=1;jettySize=auto;html=1;fontSize=18;" edge="1" parent="1" source="OQe1Y0kKmWqE2SKBV_gD-1" target="OQe1Y0kKmWqE2SKBV_gD-2">
          <mxGeometry relative="1" as="geometry" />
        </mxCell>
        <mxCell id="OQe1Y0kKmWqE2SKBV_gD-1" value="&lt;font style=&quot;font-size: 18px;&quot;&gt;GetAdjustByTypeRsp&lt;/font&gt;" style="rounded=0;whiteSpace=wrap;html=1;" vertex="1" parent="1">
          <mxGeometry x="50" y="160" width="220" height="70" as="geometry" />
        </mxCell>
        <mxCell id="OQe1Y0kKmWqE2SKBV_gD-9" style="edgeStyle=orthogonalEdgeStyle;rounded=0;orthogonalLoop=1;jettySize=auto;html=1;exitX=1;exitY=0.5;exitDx=0;exitDy=0;entryX=0;entryY=0.5;entryDx=0;entryDy=0;fontSize=18;" edge="1" parent="1" source="OQe1Y0kKmWqE2SKBV_gD-2" target="OQe1Y0kKmWqE2SKBV_gD-6">
          <mxGeometry relative="1" as="geometry" />
        </mxCell>
        <mxCell id="OQe1Y0kKmWqE2SKBV_gD-2" value="&lt;font style=&quot;font-size: 18px;&quot;&gt;AdjustItem&lt;/font&gt;" style="rounded=0;whiteSpace=wrap;html=1;" vertex="1" parent="1">
          <mxGeometry x="350" y="165" width="120" height="60" as="geometry" />
        </mxCell>
        <mxCell id="OQe1Y0kKmWqE2SKBV_gD-11" value="" style="edgeStyle=orthogonalEdgeStyle;rounded=0;orthogonalLoop=1;jettySize=auto;html=1;fontSize=18;" edge="1" parent="1" source="OQe1Y0kKmWqE2SKBV_gD-6" target="OQe1Y0kKmWqE2SKBV_gD-10">
          <mxGeometry relative="1" as="geometry" />
        </mxCell>
        <mxCell id="OQe1Y0kKmWqE2SKBV_gD-6" value="&lt;font style=&quot;font-size: 18px;&quot;&gt;TemplateAdjustItem&lt;/font&gt;" style="rounded=0;whiteSpace=wrap;html=1;" vertex="1" parent="1">
          <mxGeometry x="540" y="165" width="190" height="60" as="geometry" />
        </mxCell>
        <mxCell id="OQe1Y0kKmWqE2SKBV_gD-10" value="&lt;font style=&quot;font-size: 18px;&quot;&gt;VIPInfo&lt;/font&gt;" style="rounded=0;whiteSpace=wrap;html=1;" vertex="1" parent="1">
          <mxGeometry x="810" y="163" width="90" height="65" as="geometry" />
        </mxCell>
        <mxCell id="OQe1Y0kKmWqE2SKBV_gD-12" value="&lt;b&gt;&lt;font style=&quot;font-size: 36px;&quot;&gt;Adjust&lt;/font&gt;&lt;/b&gt;" style="text;html=1;align=center;verticalAlign=middle;resizable=0;points=[];autosize=1;strokeColor=none;fillColor=none;fontSize=18;" vertex="1" parent="1">
          <mxGeometry x="50" y="-90" width="140" height="60" as="geometry" />
        </mxCell>
        <mxCell id="OQe1Y0kKmWqE2SKBV_gD-13" value="" style="edgeStyle=orthogonalEdgeStyle;rounded=0;orthogonalLoop=1;jettySize=auto;html=1;fontSize=18;" edge="1" parent="1" source="OQe1Y0kKmWqE2SKBV_gD-14" target="OQe1Y0kKmWqE2SKBV_gD-16">
          <mxGeometry relative="1" as="geometry" />
        </mxCell>
        <mxCell id="OQe1Y0kKmWqE2SKBV_gD-14" value="&lt;font style=&quot;font-size: 18px;&quot;&gt;GetAdjustByTypeRsp&lt;/font&gt;" style="rounded=0;whiteSpace=wrap;html=1;" vertex="1" parent="1">
          <mxGeometry x="50" y="430" width="220" height="70" as="geometry" />
        </mxCell>
        <mxCell id="OQe1Y0kKmWqE2SKBV_gD-15" style="edgeStyle=orthogonalEdgeStyle;rounded=0;orthogonalLoop=1;jettySize=auto;html=1;exitX=1;exitY=0.5;exitDx=0;exitDy=0;entryX=0;entryY=0.5;entryDx=0;entryDy=0;fontSize=18;" edge="1" parent="1" source="OQe1Y0kKmWqE2SKBV_gD-16" target="OQe1Y0kKmWqE2SKBV_gD-18">
          <mxGeometry relative="1" as="geometry" />
        </mxCell>
        <mxCell id="OQe1Y0kKmWqE2SKBV_gD-16" value="&lt;font style=&quot;font-size: 18px;&quot;&gt;AdjustItem&lt;/font&gt;" style="rounded=0;whiteSpace=wrap;html=1;" vertex="1" parent="1">
          <mxGeometry x="350" y="435" width="120" height="60" as="geometry" />
        </mxCell>
        <mxCell id="OQe1Y0kKmWqE2SKBV_gD-17" value="" style="edgeStyle=orthogonalEdgeStyle;rounded=0;orthogonalLoop=1;jettySize=auto;html=1;fontSize=18;" edge="1" parent="1" source="OQe1Y0kKmWqE2SKBV_gD-18" target="OQe1Y0kKmWqE2SKBV_gD-19">
          <mxGeometry relative="1" as="geometry" />
        </mxCell>
        <mxCell id="OQe1Y0kKmWqE2SKBV_gD-18" value="&lt;font style=&quot;font-size: 18px;&quot;&gt;TemplateAdjustItem&lt;/font&gt;" style="rounded=0;whiteSpace=wrap;html=1;" vertex="1" parent="1">
          <mxGeometry x="540" y="435" width="190" height="60" as="geometry" />
        </mxCell>
        <mxCell id="OQe1Y0kKmWqE2SKBV_gD-19" value="&lt;font style=&quot;font-size: 18px;&quot;&gt;VIPInfo&lt;/font&gt;" style="rounded=0;whiteSpace=wrap;html=1;" vertex="1" parent="1">
          <mxGeometry x="810" y="433" width="90" height="65" as="geometry" />
        </mxCell>
        <mxCell id="OQe1Y0kKmWqE2SKBV_gD-20" value="&lt;b&gt;&lt;font style=&quot;font-size: 36px;&quot;&gt;Gallery&lt;/font&gt;&lt;/b&gt;" style="text;html=1;align=center;verticalAlign=middle;resizable=0;points=[];autosize=1;strokeColor=none;fillColor=none;fontSize=18;" vertex="1" parent="1">
          <mxGeometry x="45" y="320" width="150" height="60" as="geometry" />
        </mxCell>
        <mxCell id="OQe1Y0kKmWqE2SKBV_gD-23" value="" style="edgeStyle=orthogonalEdgeStyle;rounded=0;orthogonalLoop=1;jettySize=auto;html=1;fontSize=36;" edge="1" parent="1" source="OQe1Y0kKmWqE2SKBV_gD-21" target="OQe1Y0kKmWqE2SKBV_gD-22">
          <mxGeometry relative="1" as="geometry" />
        </mxCell>
        <mxCell id="OQe1Y0kKmWqE2SKBV_gD-21" value="&lt;font style=&quot;font-size: 18px;&quot;&gt;CacheTemplateAdjusts&lt;/font&gt;" style="rounded=0;whiteSpace=wrap;html=1;" vertex="1" parent="1">
          <mxGeometry x="225" y="25" width="230" height="60" as="geometry" />
        </mxCell>
        <mxCell id="OQe1Y0kKmWqE2SKBV_gD-25" style="edgeStyle=orthogonalEdgeStyle;rounded=0;orthogonalLoop=1;jettySize=auto;html=1;exitX=1;exitY=0.5;exitDx=0;exitDy=0;entryX=0;entryY=0.5;entryDx=0;entryDy=0;fontSize=36;" edge="1" parent="1" source="OQe1Y0kKmWqE2SKBV_gD-22" target="OQe1Y0kKmWqE2SKBV_gD-24">
          <mxGeometry relative="1" as="geometry" />
        </mxCell>
        <mxCell id="OQe1Y0kKmWqE2SKBV_gD-28" style="edgeStyle=orthogonalEdgeStyle;rounded=0;orthogonalLoop=1;jettySize=auto;html=1;exitX=0.5;exitY=1;exitDx=0;exitDy=0;entryX=0.5;entryY=0;entryDx=0;entryDy=0;fontSize=14;" edge="1" parent="1" source="OQe1Y0kKmWqE2SKBV_gD-22" target="OQe1Y0kKmWqE2SKBV_gD-6">
          <mxGeometry relative="1" as="geometry">
            <mxPoint x="750" y="80" as="targetPoint" />
          </mxGeometry>
        </mxCell>
        <mxCell id="OQe1Y0kKmWqE2SKBV_gD-31" value="toCommonTemplateAdjust" style="edgeLabel;html=1;align=center;verticalAlign=middle;resizable=0;points=[];fontSize=14;" vertex="1" connectable="0" parent="OQe1Y0kKmWqE2SKBV_gD-28">
          <mxGeometry x="-0.1" relative="1" as="geometry">
            <mxPoint y="-4" as="offset" />
          </mxGeometry>
        </mxCell>
        <mxCell id="OQe1Y0kKmWqE2SKBV_gD-22" value="&lt;font style=&quot;font-size: 18px;&quot;&gt;TemplateAdjustCfgs&lt;/font&gt;" style="rounded=0;whiteSpace=wrap;html=1;" vertex="1" parent="1">
          <mxGeometry x="535" y="25" width="200" height="60" as="geometry" />
        </mxCell>
        <mxCell id="OQe1Y0kKmWqE2SKBV_gD-24" value="&lt;font style=&quot;font-size: 18px;&quot;&gt;VIPInfo&lt;/font&gt;" style="rounded=0;whiteSpace=wrap;html=1;" vertex="1" parent="1">
          <mxGeometry x="810" y="25" width="90" height="60" as="geometry" />
        </mxCell>
        <mxCell id="OQe1Y0kKmWqE2SKBV_gD-33" style="edgeStyle=orthogonalEdgeStyle;rounded=0;orthogonalLoop=1;jettySize=auto;html=1;exitX=0.5;exitY=1;exitDx=0;exitDy=0;entryX=0.5;entryY=0;entryDx=0;entryDy=0;fontSize=14;" edge="1" parent="1" source="OQe1Y0kKmWqE2SKBV_gD-32" target="OQe1Y0kKmWqE2SKBV_gD-21">
          <mxGeometry relative="1" as="geometry" />
        </mxCell>
        <mxCell id="OQe1Y0kKmWqE2SKBV_gD-35" value="&lt;span style=&quot;background-color: rgb(248, 249, 250);&quot;&gt;&lt;font style=&quot;font-size: 14px;&quot;&gt;TemplateToPB&lt;/font&gt;&lt;/span&gt;" style="edgeLabel;html=1;align=center;verticalAlign=middle;resizable=0;points=[];fontSize=14;" vertex="1" connectable="0" parent="OQe1Y0kKmWqE2SKBV_gD-33">
          <mxGeometry x="-0.1273" relative="1" as="geometry">
            <mxPoint x="11" as="offset" />
          </mxGeometry>
        </mxCell>
        <mxCell id="OQe1Y0kKmWqE2SKBV_gD-32" value="&lt;font style=&quot;font-size: 18px;&quot;&gt;Mysql&lt;br&gt;&lt;/font&gt;" style="rounded=0;whiteSpace=wrap;html=1;" vertex="1" parent="1">
          <mxGeometry x="292" y="-85" width="95" height="50" as="geometry" />
        </mxCell>
      </root>
    </mxGraphModel>
  </diagram>
</mxfile>
